<svg id="Capa_1" enable-background="new 0 0 512.001 512.001" height="512" viewBox="0 0 512.001 512.001" width="512" xmlns="http://www.w3.org/2000/svg"><g><path d="m105 362c-24.813 0-45 20.187-45 45s20.187 45 45 45 45-20.187 45-45-20.187-45-45-45zm0 60c-8.271 0-15-6.729-15-15s6.729-15 15-15 15 6.729 15 15-6.729 15-15 15z"/><path d="m195 362c-24.813 0-45 20.187-45 45s20.187 45 45 45 45-20.187 45-45-20.187-45-45-45zm0 60c-8.271 0-15-6.729-15-15s6.729-15 15-15 15 6.729 15 15-6.729 15-15 15z"/><path d="m150 362c24.813 0 45-20.187 45-45s-20.187-45-45-45-45 20.187-45 45 20.187 45 45 45zm0-60c8.271 0 15 6.729 15 15s-6.729 15-15 15-15-6.729-15-15 6.729-15 15-15z"/><path d="m300 273.954c10.491 15.672 16 30.222 16 43.047h30c0-14.343 6.885-30.841 19.93-48.656 34.092 2.413 74.821 6.051 102.932-16.027l.092-.072c29.447-23.499 39.025-78.051 43.048-115.654-44.967-22.886-97.351-32.801-135.935-2.126-21.446 16.863-44.38 50.433-33.39 114.817-4.334 5.828-8.253 11.742-11.677 17.716-3.424-5.975-7.342-11.888-11.677-17.716 10.989-64.372-11.938-97.943-33.381-114.81-14.37-11.425-30.332-16.785-45.942-18.548v-23.925h30v-30h-60v-62h-120v62h-60v30h30v68.787l-60 60v291.213h300zm94.633-115.924.075-.059c27.35-21.771 67.084-10.422 85.047-3.485-3.501 22.15-12.68 60.821-29.47 74.275-14.447 11.306-39.148 12.187-59.5 11.233 17.98-17.761 41.045-36.3 68.614-54.93l-16.797-24.857c-24.271 16.401-50.5 36.31-72.755 58.25-.124-32.975 12.618-50.868 24.786-60.427zm-274.633-128.03h60v32h-60zm150 452h-240v-248.786l60-60v-81.214h120v24.446c-27.055 3.653-44.635 12.581-59.298 20.143 3.7 37.567 12.877 92.14 42.345 115.656l.092.072c20.86 16.384 50.387 18.798 76.861 17.76zm1.216-242.006c-20.354.955-45.056.074-59.503-11.234-15.496-12.422-25.243-48.485-28.986-74.256 17.759-6.927 57.202-18.313 84.565 3.467l.075.059c12.168 9.559 24.91 27.452 24.787 60.427-22.256-21.94-48.484-41.849-72.755-58.25l-16.797 24.857c27.569 18.629 50.633 37.169 68.614 54.93z"/></g></svg>